<svg id="visual" viewBox="0 0 960 540" width="960" height="540" xmlns="http://www.w3.org/2000/svg" xmlns:xlink="http://www.w3.org/1999/xlink" version="1.1"><rect x="0" y="0" width="960" height="540" fill="#f1f1f1"></rect><defs><linearGradient id="grad1_0" x1="43.8%" y1="100%" x2="100%" y2="0%"><stop offset="14.444444444444446%" stop-color="#000000" stop-opacity="1"></stop><stop offset="85.55555555555554%" stop-color="#000000" stop-opacity="1"></stop></linearGradient></defs><defs><linearGradient id="grad1_1" x1="43.8%" y1="100%" x2="100%" y2="0%"><stop offset="14.444444444444446%" stop-color="#000000" stop-opacity="1"></stop><stop offset="85.55555555555554%" stop-color="#4b4b4b" stop-opacity="1"></stop></linearGradient></defs><defs><linearGradient id="grad1_2" x1="43.8%" y1="100%" x2="100%" y2="0%"><stop offset="14.444444444444446%" stop-color="#9a9a9a" stop-opacity="1"></stop><stop offset="85.55555555555554%" stop-color="#4b4b4b" stop-opacity="1"></stop></linearGradient></defs><defs><linearGradient id="grad1_3" x1="43.8%" y1="100%" x2="100%" y2="0%"><stop offset="14.444444444444446%" stop-color="#9a9a9a" stop-opacity="1"></stop><stop offset="85.55555555555554%" stop-color="#f1f1f1" stop-opacity="1"></stop></linearGradient></defs><defs><linearGradient id="grad2_0" x1="0%" y1="100%" x2="56.3%" y2="0%"><stop offset="14.444444444444446%" stop-color="#000000" stop-opacity="1"></stop><stop offset="85.55555555555554%" stop-color="#000000" stop-opacity="1"></stop></linearGradient></defs><defs><linearGradient id="grad2_1" x1="0%" y1="100%" x2="56.3%" y2="0%"><stop offset="14.444444444444446%" stop-color="#4b4b4b" stop-opacity="1"></stop><stop offset="85.55555555555554%" stop-color="#000000" stop-opacity="1"></stop></linearGradient></defs><defs><linearGradient id="grad2_2" x1="0%" y1="100%" x2="56.3%" y2="0%"><stop offset="14.444444444444446%" stop-color="#4b4b4b" stop-opacity="1"></stop><stop offset="85.55555555555554%" stop-color="#9a9a9a" stop-opacity="1"></stop></linearGradient></defs><defs><linearGradient id="grad2_3" x1="0%" y1="100%" x2="56.3%" y2="0%"><stop offset="14.444444444444446%" stop-color="#f1f1f1" stop-opacity="1"></stop><stop offset="85.55555555555554%" stop-color="#9a9a9a" stop-opacity="1"></stop></linearGradient></defs><g transform="translate(960, 540)"><path d="M-540 0C-527.1 -96.5 -514.2 -193.1 -467.7 -270C-421.1 -346.9 -341 -404.3 -257.5 -446C-174 -487.7 -87 -513.9 0 -540L0 0Z" fill="#c4c4c4"></path><path d="M-405 0C-395.3 -72.4 -385.6 -144.8 -350.7 -202.5C-315.9 -260.2 -255.8 -303.2 -193.1 -334.5C-130.5 -365.8 -65.2 -385.4 0 -405L0 0Z" fill="#717171"></path><path d="M-270 0C-263.5 -48.3 -257.1 -96.5 -233.8 -135C-210.6 -173.5 -170.5 -202.1 -128.8 -223C-87 -243.9 -43.5 -256.9 0 -270L0 0Z" fill="#272727"></path><path d="M-135 0C-131.8 -24.1 -128.5 -48.3 -116.9 -67.5C-105.3 -86.7 -85.3 -101.1 -64.4 -111.5C-43.5 -121.9 -21.7 -128.5 0 -135L0 0Z" fill="#000000"></path></g><g transform="translate(0, 0)"><path d="M540 0C525.6 94 511.2 188 467.7 270C424.1 352 351.3 422.1 268.5 465.1C185.7 508.1 92.8 524 0 540L0 0Z" fill="#c4c4c4"></path><path d="M405 0C394.2 70.5 383.4 141 350.7 202.5C318.1 264 263.5 316.5 201.4 348.8C139.3 381 69.6 393 0 405L0 0Z" fill="#717171"></path><path d="M270 0C262.8 47 255.6 94 233.8 135C212 176 175.7 211 134.3 232.5C92.8 254 46.4 262 0 270L0 0Z" fill="#272727"></path><path d="M135 0C131.4 23.5 127.8 47 116.9 67.5C106 88 87.8 105.5 67.1 116.3C46.4 127 23.2 131 0 135L0 0Z" fill="#000000"></path></g></svg>